<svg xmlns="http://www.w3.org/2000/svg" width="42" height="43" viewBox="0 0 42 43" fill="none">
  <path d="M21 21.7744C23.8995 21.7744 26.25 19.4239 26.25 16.5244C26.25 13.6249 23.8995 11.2744 21 11.2744C18.1005 11.2744 15.75 13.6249 15.75 16.5244C15.75 19.4239 18.1005 21.7744 21 21.7744Z" stroke="white" stroke-width="1.5"/>
  <path d="M21 39.2744C30.665 39.2744 38.5 31.4394 38.5 21.7744C38.5 12.1094 30.665 4.27441 21 4.27441C11.335 4.27441 3.5 12.1094 3.5 21.7744C3.5 31.4394 11.335 39.2744 21 39.2744Z" stroke="white" stroke-width="1.5"/>
  <path d="M31.4475 35.7744C31.1675 30.7134 29.6187 27.0244 21 27.0244C12.3812 27.0244 10.8325 30.7134 10.5525 35.7744" stroke="white" stroke-width="1.5" stroke-linecap="round"/>
</svg>